<?xml version="1.0" encoding="utf-8"?>
<!-- Generator: Adobe Illustrator 22.1.0, SVG Export Plug-In . SVG Version: 6.00 Build 0)  -->
<svg version="1.1" id="Layer_1" xmlns="http://www.w3.org/2000/svg" xmlns:xlink="http://www.w3.org/1999/xlink" x="0px" y="0px"
	 viewBox="0 0 26 26" style="enable-background:new 0 0 26 26;" xml:space="preserve">
<style type="text/css">
	.st0{enable-background:new    ;}
	.st1{fill:#4D96FF;}
</style>
<title>ion-android-add-circle - Ionicons</title>
<desc>Created with Sketch.</desc>
<g id="Page-1">
	<g id="Profile-Account" transform="translate(-712.000000, -862.000000)">
		<g id="Right" transform="translate(682.000000, 130.000000)">
			<g id="Education-" transform="translate(30.000000, 654.000000)">
				<g class="st0">
					<path class="st1" d="M3.8,81.8C6.4,79.3,9.4,78,13,78c3.6,0,6.6,1.3,9.2,3.8c2.5,2.5,3.8,5.6,3.8,9.2c0,3.6-1.3,6.6-3.8,9.2
						c-2.5,2.5-5.6,3.8-9.2,3.8c-3.6,0-6.6-1.3-9.2-3.8C1.3,97.6,0,94.6,0,91C0,87.4,1.3,84.4,3.8,81.8z M19.7,92.3v-2.6h-5.4v-5.4
						h-2.6v5.4H6.3v2.6h5.4v5.4h2.6v-5.4H19.7z"/>
				</g>
			</g>
		</g>
	</g>
</g>
</svg>
